name D:\school\WTK\thesis\model\3dpredictsim\Results\MidTarsalJoint\Fal_s1_bCst_PF_Natali2010_ls150_MT_nl_k100_10_MTP_T5_ig24.mot
datacolumns 128
datarows 4
range 1.16958821 1.20467585
endheader
time	pelvis_tilt	pelvis_list	pelvis_rotation	pelvis_tx	pelvis_ty	pelvis_tz	hip_flexion_l	hip_adduction_l	hip_rotation_l	hip_flexion_r	hip_adduction_r	hip_rotation_r	knee_angle_l	knee_angle_r	ankle_angle_l	ankle_angle_r	subtalar_angle_l	subtalar_angle_r	mtj_angle_l	mtj_angle_r	mtp_angle_l	mtp_angle_r	lumbar_extension	lumbar_bending	lumbar_rotation	arm_flex_l	arm_add_l	arm_rot_l	arm_flex_r	arm_add_r	arm_rot_r	elbow_flex_l	elbow_flex_r	pro_sup_l	pro_sup_r	glut_med1_l/activation	glut_med2_l/activation	glut_med3_l/activation	glut_min1_l/activation	glut_min2_l/activation	glut_min3_l/activation	semimem_l/activation	semiten_l/activation	bifemlh_l/activation	bifemsh_l/activation	sar_l/activation	add_long_l/activation	add_brev_l/activation	add_mag1_l/activation	add_mag2_l/activation	add_mag3_l/activation	tfl_l/activation	pect_l/activation	grac_l/activation	glut_max1_l/activation	glut_max2_l/activation	glut_max3_l/activation	iliacus_l/activation	psoas_l/activation	quad_fem_l/activation	gem_l/activation	peri_l/activation	rect_fem_l/activation	vas_med_l/activation	vas_int_l/activation	vas_lat_l/activation	med_gas_l/activation	lat_gas_l/activation	soleus_l/activation	tib_post_l/activation	flex_dig_l/activation	flex_hal_l/activation	tib_ant_l/activation	per_brev_l/activation	per_long_l/activation	per_tert_l/activation	ext_dig_l/activation	ext_hal_l/activation	ercspn_l/activation	intobl_l/activation	extobl_l/activation	glut_med1_r/activation	glut_med2_r/activation	glut_med3_r/activation	glut_min1_r/activation	glut_min2_r/activation	glut_min3_r/activation	semimem_r/activation	semiten_r/activation	bifemlh_r/activation	bifemsh_r/activation	sar_r/activation	add_long_r/activation	add_brev_r/activation	add_mag1_r/activation	add_mag2_r/activation	add_mag3_r/activation	tfl_r/activation	pect_r/activation	grac_r/activation	glut_max1_r/activation	glut_max2_r/activation	glut_max3_r/activation	iliacus_r/activation	psoas_r/activation	quad_fem_r/activation	gem_r/activation	peri_r/activation	rect_fem_r/activation	vas_med_r/activation	vas_int_r/activation	vas_lat_r/activation	med_gas_r/activation	lat_gas_r/activation	soleus_r/activation	tib_post_r/activation	flex_dig_r/activation	flex_hal_r/activation	tib_ant_r/activation	per_brev_r/activation	per_long_r/activation	per_tert_r/activation	ext_dig_r/activation	ext_hal_r/activation	ercspn_r/activation	intobl_r/activation	extobl_r/activation	
          1.16958821	         -2.93017643	         -2.42369043	          6.15152979	          1.46198526	          0.91782502	         -0.00201574	        -15.62562774	         -1.26058885	          5.77199087	         28.94294833	          3.77382877	         -2.56536980	        -12.08267988	        -10.02726495	         -5.59215207	          4.43574662	          6.02582733	         -8.04277582	          8.86171477	         -1.10858780	          5.68907268	          3.04938666	         -1.16156097	          0.29928984	         -2.35007211	          4.62371986	        -13.45326491	         15.84298835	         -7.14436490	        -13.46560942	          5.71218597	         36.13641435	         17.25230559	         86.51662706	         86.51662706	          0.23642654	          0.08532244	          0.05975681	          0.23639452	          0.16215094	          0.09929372	          0.05000400	          0.05000049	          0.05000044	          0.05000055	          0.09335184	          0.06047364	          0.07137099	          0.05000647	          0.05001095	          0.05000415	          0.27322509	          0.05910632	          0.05000322	          0.05000128	          0.05000077	          0.05000111	          0.35770394	          0.55585984	          0.05000022	          0.05000089	          0.05974613	          0.32494766	          0.05000446	          0.05000285	          0.09354343	          0.25870623	          0.35958174	          0.34903950	          0.26563400	          0.21991671	          0.29768835	          0.05000008	          0.05019839	          0.14476623	          0.05000043	          0.05000011	          0.05000043	          0.05000002	          0.07278551	          0.06335037	          0.09875367	          0.05974644	          0.05000014	          0.05976676	          0.05974679	          0.05000270	          0.21197877	          0.06258580	          0.08132480	          0.05000067	          0.05000034	          0.12181069	          0.24019238	          0.21210328	          0.16035407	          0.09141927	          0.05000050	          0.07138626	          0.10762526	          0.05000044	          0.05000032	          0.10036804	          0.06499119	          0.05324605	          0.48826846	          0.20304447	          0.13265108	          0.08100178	          0.16416367	          0.16246321	          0.13833425	          0.05155228	          0.05000576	          0.05000009	          0.05000013	          0.05000051	          0.05000052	          0.49780603	          0.26002065	          0.17849596	          0.22560211	          0.47790487	          0.05974692	          0.05000002	          0.12712796	          0.11793350	
          1.18128409	         -2.92876426	         -2.51264914	          6.44443860	          1.47985774	          0.91681107	         -0.00185905	        -15.69314642	         -1.60093830	          5.58326088	         28.25381503	          4.07194844	         -2.29984234	        -13.63688719	        -10.53644401	         -6.07219528	          3.78914562	          6.83208532	         -8.38785568	          7.23712425	         -1.30181079	          8.07420243	          2.94171543	         -0.92957992	          0.48600467	         -2.41795293	          4.32850630	        -13.45844876	         16.20924065	         -8.12289337	        -13.46148907	          5.67751815	         37.28980804	         16.88176970	         86.51662706	         86.51662706	          0.26301944	          0.07140367	          0.05000868	          0.19783125	          0.13569905	          0.08309583	          0.05000292	          0.05000078	          0.05000062	          0.05000017	          0.07812341	          0.08299791	          0.05974651	          0.05974630	          0.05973945	          0.05974645	          0.22865374	          0.05001007	          0.05000755	          0.05005288	          0.05009216	          0.05974453	          0.29935122	          0.55880548	          0.05677840	          0.05000175	          0.05000014	          0.27193841	          0.07358500	          0.10907453	          0.12352046	          0.21650302	          0.30092257	          0.29210010	          0.22550976	          0.18404159	          0.24912624	          0.05000001	          0.05000037	          0.17365495	          0.05000007	          0.05000002	          0.05000010	          0.05000003	          0.06091189	          0.07086264	          0.18263514	          0.05000007	          0.16000469	          0.05001692	          0.05000023	          0.05000016	          0.19421877	          0.08654339	          0.08579486	          0.05000012	          0.05003178	          0.10193957	          0.20100949	          0.17750284	          0.13419546	          0.07779486	          0.05000059	          0.05979085	          0.09006960	          0.05000135	          0.08919010	          0.08399508	          0.05438943	          0.05436653	          0.40861642	          0.16992151	          0.11101161	          0.06778781	          0.13738338	          0.13596031	          0.11576755	          0.05798523	          0.05974652	          0.05633599	          0.05536687	          0.05000099	          0.05000200	          0.41659809	          0.25070406	          0.17726164	          0.18879926	          0.53589063	          0.05000032	          0.05000000	          0.12296989	          0.09869480	
          1.19297997	         -2.92554866	         -2.60052966	          6.69996294	          1.49798040	          0.91585693	         -0.00170273	        -15.71725947	         -1.93755744	          5.39613655	         27.44996115	          4.31936750	         -2.02780185	        -15.22739075	        -11.03530085	         -6.66575300	          3.05969801	          7.57890773	         -8.75391344	          5.34829618	         -1.41061282	         10.76903695	          2.97197068	         -0.68547235	          0.68258642	         -2.47552037	          3.96749229	        -13.46529780	         16.51907905	         -9.10913141	        -13.46061154	          5.69354201	         38.39687843	         16.55235948	         86.51662706	         86.51662706	          0.26695553	          0.05975551	          0.05000005	          0.34032910	          0.11356233	          0.06954038	          0.05000107	          0.05000014	          0.05000012	          0.05000063	          0.07139587	          0.08430600	          0.05000030	          0.05000026	          0.05000042	          0.05000037	          0.22137400	          0.07098182	          0.05000036	          0.05000060	          0.05000043	          0.05000027	          0.25051791	          0.54018548	          0.05000005	          0.05000036	          0.05000045	          0.26337292	          0.06158111	          0.09128134	          0.14444907	          0.18118448	          0.25183253	          0.24444927	          0.18872201	          0.15401865	          0.20848591	          0.05000046	          0.07232033	          0.17626959	          0.05000098	          0.08199100	          0.05000044	          0.05164590	          0.05097522	          0.05930270	          0.26286099	          0.24072466	          0.30462062	          0.23545895	          0.18338911	          0.17998067	          0.16253552	          0.07243940	          0.07179904	          0.08922422	          0.05032506	          0.08531002	          0.16821850	          0.14854667	          0.11230425	          0.11889192	          0.05000040	          0.05003765	          0.11415934	          0.17100218	          0.14182639	          0.08782864	          0.05000017	          0.05000015	          0.34195813	          0.14220203	          0.18283160	          0.05672949	          0.11497183	          0.11378091	          0.09688223	          0.05000015	          0.05000046	          0.05000001	          0.05000004	          0.05000033	          0.05000034	          0.53173680	          0.35069015	          0.20392723	          0.44147251	          0.50248454	          0.22732613	          0.06215715	          0.12181054	          0.08259454	
          1.20467585	         -2.92146498	         -2.67988670	          6.91482596	          1.51613195	          0.91502697	         -0.00151461	        -15.65804172	         -2.25995433	          5.22276690	         26.66323565	          4.56660898	         -1.76100831	        -16.89079099	        -11.57597301	         -7.40783458	          2.39390805	          8.27005810	         -9.12265403	          3.26057680	         -1.41548882	         13.64392088	          2.99625891	         -0.45129644	          0.88193423	         -2.52496296	          3.58069420	        -13.47808075	         16.79858571	        -10.05678928	        -13.45848536	          5.75603328	         39.42834182	         16.24541767	         86.51662706	         86.51662706	          0.29011159	          0.05000762	          0.05000036	          0.28481080	          0.09503678	          0.05819638	          0.05000339	          0.05000038	          0.05000036	          0.05000023	          0.05974914	          0.11190158	          0.11801375	          0.05003269	          0.05001688	          0.05000822	          0.18536953	          0.05968815	          0.05000487	          0.05001171	          0.05000532	          0.05000417	          0.20965051	          0.51680113	          0.05000100	          0.05000154	          0.05000024	          0.22040844	          0.09792419	          0.09575676	          0.12088510	          0.15162753	          0.21075064	          0.20457181	          0.15793550	          0.12889340	          0.17447530	          0.09205400	          0.12796111	          0.14751493	          0.05000026	          0.13528885	          0.05974672	          0.06732273	          0.05000001	          0.05000003	          0.35741976	          0.33120232	          0.37272340	          0.19706351	          0.18209893	          0.20008097	          0.13602086	          0.07344032	          0.07189337	          0.07466895	          0.05000041	          0.07139330	          0.14077681	          0.12431458	          0.14706258	          0.15335902	          0.05000030	          0.05000249	          0.09553681	          0.23134227	          0.18567671	          0.15207490	          0.05000012	          0.05000012	          0.28617393	          0.11900445	          0.15877426	          0.05000006	          0.15400982	          0.15751458	          0.13180231	          0.05000002	          0.05000006	          0.05000001	          0.05000006	          0.05000013	          0.05000014	          0.60175329	          0.29348183	          0.17066042	          0.51239745	          0.58873947	          0.26546982	          0.07387322	          0.10193939	          0.06912075	
